<svg width="160" height="48" viewBox="0 0 160 48" fill="none" xmlns="http://www.w3.org/2000/svg"><path d="M111.29 15.667c1.306 0 2.319-1.034 2.319-2.333a2.298 2.298 0 00-2.319-2.308c-1.279 0-2.345 1.035-2.345 2.308-.027 1.299 1.066 2.333 2.345 2.333zM91.302 17.285h3.491v2.121c.88-1.273 2.825-2.44 5.117-2.44 4.344 0 7.649 3.686 7.649 8.221 0 4.508-3.305 8.22-7.649 8.22-2.292 0-4.211-1.166-5.117-2.439v8.725h-3.492V17.285zm7.968 2.837c-2.825 0-4.77 2.201-4.77 5.065 0 2.838 1.945 5.065 4.77 5.065 2.799 0 4.744-2.2 4.744-5.065 0-2.837-1.945-5.065-4.744-5.065zM115.608 17.285h3.491v2.148c.96-1.591 2.772-2.466 4.824-2.466 3.678 0 6.077 2.598 6.077 6.603v9.52h-3.492v-8.937c0-2.493-1.279-4.004-3.304-4.004-2.319 0-4.105 1.803-4.105 5.17v7.77h-3.491V17.286zM64.703 16.966c-2.052 0-3.865.876-4.824 2.467v-8.407h-3.491V33.09h3.491v-7.77c0-3.368 1.786-5.171 4.104-5.171 2.026 0 3.305 1.511 3.305 4.004v8.937h3.492v-9.52c-.027-4.005-2.4-6.604-6.077-6.604zM112.996 17.285h-3.491V33.09h3.491V17.285zM81.04 33.408c-4.69 0-8.315-3.633-8.315-8.22 0-4.588 3.625-8.221 8.316-8.221 4.69 0 8.315 3.633 8.315 8.22 0 4.588-3.625 8.22-8.315 8.22zm0-3.235c2.799 0 4.771-2.175 4.771-4.986 0-2.81-1.972-4.985-4.77-4.985-2.825 0-4.798 2.174-4.798 4.985 0 2.811 1.973 4.986 4.798 4.986z" fill="#2C3242"/><path d="M43.673 15.253c-.027 1.057-.772 2.562-2.022 2.562-.77 0-1.41-.634-1.41-1.4v-.026c-.026-1.242-.584-2.325-1.462-3.09a4.558 4.558 0 00-2.394-1.031A4.25 4.25 0 0139.444 11c1.516 0 2.899.872 3.697 2.14.372.634.559 1.4.532 2.113zM38.726 15.359c.665.845 1.064 2.456.106 3.249a1.43 1.43 0 01-1.994-.159 4.29 4.29 0 00-3.112-1.426 4.265 4.265 0 00-2.5.74 4.195 4.195 0 011.516-2.933c1.197-.977 2.872-1.268 4.308-.687a3.67 3.67 0 011.676 1.216zM35.002 18.582c1.038.21 2.42 1.215 2.208 2.43-.133.766-.878 1.268-1.65 1.136h-.026a4.246 4.246 0 00-3.298.898 4.237 4.237 0 00-1.436 2.166 4.36 4.36 0 01-.745-3.223 4.344 4.344 0 012.873-3.275 4.266 4.266 0 012.074-.132zM34.231 23.442c.93-.502 2.633-.608 3.245.45.399.66.16 1.531-.505 1.928-1.064.633-1.73 1.664-1.969 2.8-.16.845-.08 1.743.32 2.562a4.19 4.19 0 01-2.634-1.981 4.281 4.281 0 01.054-4.332c.372-.608.877-1.11 1.489-1.427zM36.784 27.642c.4-.977 1.623-2.14 2.766-1.717a1.398 1.398 0 01.851 1.797 4.152 4.152 0 00.32 3.38 4.215 4.215 0 001.888 1.77c-1.01.476-2.181.582-3.298.16a4.28 4.28 0 01-2.766-3.356c-.08-.686 0-1.4.24-2.034zM41.465 29.227c-.345-1.004-.16-2.668 1.011-3.09a1.403 1.403 0 011.809.845 4.28 4.28 0 002.447 2.404c.797.317 1.728.37 2.606.158a4.3 4.3 0 01-2.42 2.246c-1.463.528-3.139.21-4.282-.82-.532-.501-.958-1.082-1.17-1.743zM46.093 27.457c-.904-.554-1.862-1.954-1.223-3.011a1.461 1.461 0 011.941-.528c1.09.58 2.314.66 3.431.29a4.365 4.365 0 002.102-1.558 4.144 4.144 0 01-.426 3.249 4.248 4.248 0 01-3.803 2.113c-.745 0-1.463-.185-2.022-.555zM48.487 23.151c-1.064.159-2.687-.317-2.9-1.532-.159-.74.373-1.48 1.144-1.611h.027a4.165 4.165 0 002.793-1.955c.452-.74.665-1.611.585-2.51.904.608 1.596 1.585 1.782 2.748.266 1.506-.346 3.09-1.543 4.041-.558.423-1.223.74-1.888.82zM47.53 18.344c-.719.792-2.261 1.48-3.219.687a1.387 1.387 0 01-.186-1.982 4.181 4.181 0 00.878-3.302 4.322 4.322 0 00-1.17-2.324 4.319 4.319 0 013.165.977 4.21 4.21 0 011.436 4.095 3.908 3.908 0 01-.905 1.849z" fill="#175FFF"/></svg>