<svg width="160" height="48" fill="none" xmlns="http://www.w3.org/2000/svg"><path d="M66.507 26.111c-1.28-.044-2.446.605-3.424 1.376l-10.695 7.286c4.915-.02 9.832.026 14.746-.039 1.992-.213 3.737-1.953 3.834-3.997.192-2.186-1.55-4.25-3.673-4.564a4.081 4.081 0 00-.788-.062zm-3.049-8.936c-1.112-.019-2.186.446-2.986 1.204-.534.506-.682.81-1.165 1.854-1.972 4.397-3.94 8.795-5.915 13.19 4.177-2.73 8.283-5.554 12.362-8.432.51-.352.695-.504.966-.816 1.166-1.35 1.354-3.51.342-5.017-.77-1.211-2.158-2.023-3.604-1.983z" fill="#fff"/><path d="M46.85 12.002c-1.083-.034-2.183.365-2.943 1.158-1.093 1.107-1.55 2.722-1.06 4.27 1.91 4.38 3.756 8.792 5.783 13.117.904-4.53 1.29-9.227 2.117-13.795.15-.998-.099-1.91-.514-2.704a4.396 4.396 0 00-1.953-1.729 3.88 3.88 0 00-1.43-.317z" fill="#CE0014"/><path d="M42.463 19.518l5.9 13.14c-4.037-2.598-8.17-5.308-12.08-8.03-1.212-1.019-1.615-2.707-1.204-4.254.307-1.159 1.268-2.242 2.407-2.67 1.871-.686 3.981.042 4.977 1.814z" fill="#FF6714"/><path d="M42.463 19.518l5.9 13.14c-4.037-2.598-8.17-5.308-12.08-8.03-1.212-1.019-1.615-2.707-1.204-4.254.307-1.159 1.268-2.242 2.407-2.67 1.871-.686 3.981.042 4.977 1.814z" fill="url(#paint0_linear)"/><path d="M32.038 28.82c-.618 1.272-.377 3.018.503 4.101.874 1.039 2.042 1.602 3.41 1.565l13.166.011-11.029-7.514c-1.076-.68-2.715-.804-3.892-.254-.908.345-1.762 1.22-2.158 2.092z" fill="#FABC13"/><path d="M55.567 12.002c-.492.016-.984.12-1.434.317a4.395 4.395 0 00-1.953 1.73c-.33.63-.554 1.331-.558 2.093h2.063c.377 0 .49.149.49.275-.009.123-.216.24-.341.292-.044.015-.087.03-.13.047-.874.343-1.483 1.034-1.724 1.539l-.008.015a.333.333 0 00-.024.108.598.598 0 000 .118l.004.044v.012l.02.123.075.495.538 3.494v.008c.003.023.004.047.008.071l.031.222.004.024c.296 2.196.595 4.39.998 6.55l.004.028.082.547c.026.13.048.263.075.393l.004-.008c2.027-4.322 3.87-8.733 5.78-13.109.49-1.548.032-3.167-1.061-4.274-.76-.793-1.86-1.188-2.943-1.154z" fill="#5A1566"/><path d="M55.543 12.002c-.492.016-.984.12-1.434.317a4.397 4.397 0 00-1.953 1.73c-.33.63-.554 1.331-.558 2.093h2.063c.279.05.56.184.475.349v.004l-.008.011a.2.2 0 01-.039.048c-.013.012-.026.024-.043.036a.784.784 0 01-.102.06c-.002 0-.002.002-.004.003a1.63 1.63 0 01-.13.056c-.044.015-.086.03-.13.047-.874.343-1.483 1.034-1.724 1.539l-.008.016a.331.331 0 00-.024.107.613.613 0 000 .119l.004.043v.012l.02.123.075.496.538 3.5.04.294 1.087 7.15c.026.13.048.262.075.392a.19.19 0 00.004-.008c2.027-4.322 3.87-8.733 5.78-13.109.49-1.548.032-3.167-1.061-4.274-.76-.793-1.86-1.188-2.943-1.154z" fill="url(#paint1_linear)"/><path d="M55.543 12.002c-.492.016-.984.12-1.434.317a4.397 4.397 0 00-1.953 1.73c-.33.63-.554 1.331-.558 2.093l2.06-.047c.294 0 .563.231.478.396v.004l-.008.011a.2.2 0 01-.039.048c-.013.012-.026.024-.043.036a.784.784 0 01-.102.06c-.002 0-.002.002-.004.003a1.63 1.63 0 01-.13.056c-.044.015-.086.03-.13.047-.874.343-1.483 1.034-1.724 1.539l-.008.016a.331.331 0 00-.024.107.613.613 0 000 .119l.004.043v.012l.02.123.075.496.538 3.5.04.294 1.087 7.15c.026.13.048.262.075.392a.19.19 0 00.004-.008c2.027-4.322 3.87-8.733 5.78-13.109.49-1.548.032-3.167-1.061-4.274-.76-.793-1.86-1.188-2.943-1.154z" fill="url(#paint2_linear)"/><path d="M55.496 12.187a3.793 3.793 0 00-1.398.31 4.311 4.311 0 00-1.914 1.693c-.297.568-.505 1.197-.538 1.875h2.098c.717.2.641.507.035.75-.861.27-1.385.927-1.819 1.645.633 3.953 1.018 7.978 1.796 11.876 1.984-4.233 3.79-8.554 5.662-12.84.479-1.515.032-3.095-1.038-4.178-.744-.777-1.824-1.164-2.884-1.13zm-3.85 4.192c.002.077.005.155.012.233l-.004-.233h-.008z" fill="url(#paint3_linear)"/><path d="M59.939 19.518l-5.9 13.163c3.974-2.599 8.015-5.465 11.992-8.21 1.21-1.019 1.703-2.55 1.292-4.097-.307-1.159-1.268-2.242-2.407-2.67-1.871-.686-3.981.042-4.977 1.814z" fill="#10578D"/><path d="M70.352 28.821c.618 1.271.377 3.017-.503 4.1-.874 1.039-2.042 1.602-3.41 1.566l-13.166.01 11.03-7.514c1.075-.68 2.714-.804 3.892-.254.907.345 1.761 1.22 2.157 2.092z" fill="#359E35"/><path d="M59.939 19.518l-5.9 13.163c3.974-2.599 8.015-5.465 11.992-8.21 1.21-1.019 1.703-2.55 1.292-4.097-.307-1.159-1.268-2.242-2.407-2.67-1.871-.686-3.981.042-4.977 1.814z" fill="url(#paint4_linear)"/><path d="M32.038 28.82c-.618 1.272-.377 3.018.503 4.101.874 1.039 2.042 1.602 3.41 1.565l13.166.011-11.029-7.514c-1.076-.68-2.715-.804-3.892-.254-.908.345-1.762 1.22-2.158 2.092z" fill="url(#paint5_linear)"/><path d="M70.352 28.821c.618 1.271.377 3.017-.503 4.1-.874 1.039-2.042 1.602-3.41 1.566l-13.166.01 11.03-7.514c1.075-.68 2.714-.804 3.892-.254.907.345 1.761 1.22 2.157 2.092z" fill="url(#paint6_linear)"/><path d="M42.463 19.518l5.9 13.14c-4.037-2.598-8.17-5.308-12.08-8.03-1.212-1.019-1.615-2.707-1.204-4.254.307-1.159 1.268-2.242 2.407-2.67 1.871-.686 3.981.042 4.977 1.814z" fill="url(#paint7_linear)"/><path d="M50.21 14.048c.416.795.663 1.703.514 2.701-.828 4.568-1.214 9.268-2.118 13.798-2.027-4.326-3.872-8.74-5.783-13.119-.49-1.548-.034-3.163 1.06-4.27 1.105-1.154 2.933-1.469 4.374-.839a4.4 4.4 0 011.954 1.73z" fill="url(#paint8_linear)"/><path d="M50.145 14.19c.406.778.648 1.666.502 2.644-.81 4.47-1.188 9.07-2.073 13.503-1.984-4.233-3.789-8.553-5.66-12.839-.479-1.515-.033-3.096 1.037-4.18 1.082-1.129 2.872-1.437 4.282-.82.753.33 1.465.943 1.912 1.692z" fill="url(#paint9_linear)"/><path d="M55.496 12.187a3.793 3.793 0 00-1.398.31 4.311 4.311 0 00-1.914 1.693c-.297.568-.505 1.197-.538 1.875h2.098c.717.2.641.507.035.75-.861.27-1.385.927-1.819 1.645.633 3.953 1.018 7.978 1.796 11.876 1.984-4.233 3.79-8.554 5.662-12.84.479-1.515.032-3.095-1.038-4.178-.744-.777-1.824-1.164-2.884-1.13zm-3.85 4.192c.002.077.005.155.012.233l-.004-.233h-.008z" fill="url(#paint10_linear)"/><path d="M50.21 14.048c.416.795.663 1.703.514 2.701-.828 4.568-1.214 9.268-2.118 13.798-2.027-4.326-3.872-8.74-5.783-13.119-.49-1.548-.034-3.163 1.06-4.27 1.105-1.154 2.933-1.469 4.374-.839a4.4 4.4 0 011.954 1.73z" fill="url(#paint11_linear)"/><path d="M50.145 14.19c.406.778.648 1.666.502 2.644-.81 4.47-1.188 9.07-2.073 13.503-1.984-4.233-3.789-8.553-5.66-12.839-.479-1.515-.033-3.096 1.037-4.18 1.082-1.129 2.872-1.437 4.282-.82.753.33 1.465.943 1.912 1.692z" fill="url(#paint12_linear)"/><path d="M46.532 12.189c-.964.039-1.917.424-2.593 1.13-.889.9-1.189 2.098-.99 3.346 1.625.631 4.2.737 7.645.361h.008c.011-.063.02-.127.032-.19.146-.977-.097-1.867-.503-2.645a4.302 4.302 0 00-1.91-1.693 3.84 3.84 0 00-1.69-.31z" fill="url(#paint13_linear)"/><path d="M32.038 28.82c-.618 1.272-.377 3.018.503 4.101.874 1.039 2.042 1.602 3.41 1.565l13.166.011-11.029-7.514c-1.076-.68-2.715-.804-3.892-.254-.908.345-1.762 1.22-2.158 2.092z" fill="url(#paint14_linear)"/><path d="M70.352 28.821c.618 1.271.377 3.017-.503 4.1-.874 1.039-2.042 1.602-3.41 1.566l-13.166.01 11.03-7.514c1.075-.68 2.714-.804 3.892-.254.907.345 1.761 1.22 2.157 2.092z" fill="url(#paint15_linear)"/><path d="M59.939 19.518l-5.9 13.163c3.974-2.599 8.015-5.465 11.992-8.21 1.21-1.019 1.703-2.55 1.292-4.097-.307-1.159-1.268-2.242-2.407-2.67-1.871-.686-3.981.042-4.977 1.814z" fill="url(#paint16_linear)"/><path d="M38.901 17.628c-.573 0-1.496.19-1.993.51-1.104.629-2.002 1.941-1.582 2.975h-.187c1.704-.034 4.311-.662 5.566.068 2.827 2.286 4.846 6.87 6.713 9.55l-5.11-11.08c-.775-1.436-2.054-2.024-3.36-2.023H38.9z" fill="url(#paint17_linear)"/><path opacity=".69" d="M66.681 26.713c.573-.007 1.455.121 1.78.244.983.43 2.038 1.831 1.927 2.351-2.005-.641-5.177-.606-7.172.371-3.089 1.607-6.261 3.276-8.915 4.667 3.11-2.174 6.962-4.77 10.334-7.066.57-.361 1.31-.558 2.046-.567z" fill="url(#paint18_linear)"/><path opacity=".75" d="M66.466 26.612c.573-.007 1.145.098 1.631.325.97.465 1.628 1.15 1.873 1.761.057.119.05.39.092.517-2.074-1.684-4.39-.968-7.061.363-3.089 1.607-6.262 3.275-8.915 4.667 3.109-2.175 6.962-4.77 10.333-7.066.572-.362 1.312-.558 2.047-.567z" fill="url(#paint19_linear)"/><path opacity=".69" d="M35.947 26.612c-.572-.007-1.144.098-1.63.325-1.04.407-2.256 1.715-2.019 2.27 2.006-.642 5.12-.607 7.115.37 3.089 1.608 6.262 3.276 8.915 4.668-3.109-2.175-6.962-4.77-10.334-7.066-.571-.362-1.31-.558-2.047-.567z" fill="url(#paint20_linear)"/><path d="M38.882 17.628c-.436 0-1.382.143-1.878.464-.927.627-1.253 1.166-1.58 2.351a4.321 4.321 0 00-.118.67l.02-.023c1.704-.035 4.104-.64 5.36.091 2.826 2.286 4.845 6.87 6.712 9.55l-5.11-11.08c-.775-1.436-2.1-2.024-3.406-2.023z" fill="url(#paint21_linear)"/><path d="M38.906 17.628c-.436 0-1.382.143-1.878.464-.927.627-1.253 1.166-1.58 2.351a4.309 4.309 0 00-.118.67l.02-.023c1.704-.035 4.104-.64 5.36.091 2.826 2.286 4.845 6.87 6.712 9.55l-5.11-11.08c-.775-1.436-2.1-2.024-3.406-2.023z" fill="url(#paint22_linear)"/><path d="M63.488 17.628c.436 0 1.382.143 1.878.464.927.627 1.253 1.166 1.58 2.351.058.222.095.445.118.67l-.02-.023c-1.704-.035-4.104-.64-5.36.091-2.826 2.286-4.845 6.87-6.713 9.55l5.11-11.08c.776-1.436 2.101-2.024 3.407-2.023z" fill="url(#paint23_linear)"/><path d="M63.488 17.628c.436 0 1.382.143 1.878.464.927.627 1.253 1.166 1.58 2.351.058.222.095.445.118.67l-.02-.023c-1.704-.035-4.104-.64-5.36.091-2.826 2.286-4.845 6.87-6.713 9.55l5.11-11.08c.776-1.436 2.101-2.024 3.407-2.023z" fill="url(#paint24_linear)"/><path opacity=".69" d="M35.72 26.713c-.572-.007-1.455.121-1.78.244-.983.43-2.038 1.831-1.927 2.351 2.006-.641 5.178-.606 7.172.371 3.089 1.607 6.262 3.276 8.915 4.667-3.109-2.174-6.962-4.77-10.333-7.066-.572-.361-1.311-.558-2.047-.567z" fill="url(#paint25_linear)"/><path opacity=".69" d="M35.947 26.612c-.572-.007-1.144.098-1.63.325-1.04.407-2.256 1.715-2.019 2.27 2.006-.642 5.12-.607 7.115.37 3.089 1.608 6.262 3.276 8.915 4.668-3.109-2.175-6.962-4.77-10.334-7.066-.571-.362-1.31-.558-2.047-.567z" fill="url(#paint26_linear)"/><path d="M63.464 17.628c.574 0 1.497.19 1.993.51 1.104.629 2.003 1.941 1.583 2.975h.187c-1.704-.034-4.311-.662-5.567.068-2.826 2.286-4.845 6.87-6.713 9.55l5.11-11.08c.776-1.436 2.055-2.024 3.361-2.023h.046z" fill="url(#paint27_linear)"/><path d="M63.464 17.628c.436 0 1.382.143 1.878.464.927.627 1.253 1.166 1.58 2.351.058.222.095.445.118.67l-.02-.023c-1.704-.035-4.104-.64-5.36.091-2.826 2.286-4.845 6.87-6.713 9.55l5.11-11.08c.776-1.436 2.101-2.024 3.407-2.023z" fill="url(#paint28_linear)"/><path d="M38.906 17.628c-.436 0-1.382.143-1.878.464-.927.627-1.253 1.166-1.58 2.351a4.309 4.309 0 00-.118.67l.02-.023c1.704-.035 4.104-.64 5.36.091 2.826 2.286 4.845 6.87 6.712 9.55l-5.11-11.08c-.775-1.436-2.1-2.024-3.406-2.023z" fill="url(#paint29_linear)"/><path opacity=".5" d="M55.615 12.186c-.506.007-1.01.11-1.473.313a4.302 4.302 0 00-1.91 1.693c-.298.57-.505 1.2-.538 1.88h2.07c.412 0 .487.235.486.348 0 .205-.424.386-.635.46-.19.068-.363.16-.526.27 2.79.215 4.915.064 6.325-.484.198-1.248-.101-2.446-.99-3.346-.676-.706-1.63-1.091-2.593-1.13a3.893 3.893 0 00-.216-.004z" fill="url(#paint30_linear)"/><path d="M86.78 28.477h-.027l-10.392-12.2h-2.73v17.588h3.088V21.663h.028l10.392 12.202h2.729V16.276H86.78v12.201zm16.287 5.388c2.591 0 3.777-.7 4.658-1.508 1.213-1.132 1.655-2.452 1.655-3.744 0-2.155-1.186-3.96-3.282-4.445 1.298-.51 2.289-1.966 2.289-3.582 0-1.077-.441-2.02-1.213-2.774-.883-.861-2.288-1.536-4.327-1.536h-10.89v17.589h11.11zm.11-7.893c.91 0 1.709.377 2.261.943.44.458.716 1.025.716 1.671a2.55 2.55 0 01-.744 1.778c-.551.539-1.379.809-2.233.809h-8.133v-5.2h8.133zm-.661-7.002c.854 0 1.515.189 2.013.673.385.377.632.916.632 1.509 0 .646-.275 1.293-.744 1.751-.496.485-1.157.646-1.901.646h-7.472v-4.58h7.472zm24.417 9.777c-1.544 1.617-3.942 2.962-6.754 2.962-4.025 0-6.643-2.961-6.643-6.625 0-3.635 2.563-6.653 6.505-6.653 2.206 0 4.686.943 6.286 2.424l2.095-2.02c-2.013-1.832-5.155-3.097-8.436-3.097-5.761 0-9.703 4.229-9.703 9.319 0 5.172 3.914 9.346 9.841 9.346 3.915 0 6.946-1.778 8.876-3.663l-2.067-1.992z" fill="#000"/><defs><linearGradient id="paint0_linear" x1="45.658" y1="24.011" x2="44.311" y2="24.611" gradientUnits="userSpaceOnUse"><stop/><stop offset="1" stop-opacity="0"/></linearGradient><linearGradient id="paint1_linear" x1="52.102" y1="21.646" x2="52.731" y2="21.553" gradientUnits="userSpaceOnUse"><stop/><stop offset="1" stop-opacity="0"/></linearGradient><linearGradient id="paint2_linear" x1="58.034" y1="22.556" x2="56.962" y2="22.087" gradientUnits="userSpaceOnUse"><stop/><stop offset="1" stop-opacity="0"/></linearGradient><linearGradient id="paint3_linear" x1="51.518" y1="21.261" x2="51.964" y2="21.261" gradientUnits="userSpaceOnUse"><stop stop-color="#fff"/><stop offset="1" stop-color="#fff" stop-opacity="0"/></linearGradient><linearGradient id="paint4_linear" x1="57.04" y1="24.096" x2="58.033" y2="24.56" gradientUnits="userSpaceOnUse"><stop/><stop offset="1" stop-opacity="0"/></linearGradient><linearGradient id="paint5_linear" x1="40.406" y1="35.696" x2="40.406" y2="33.476" gradientUnits="userSpaceOnUse"><stop/><stop offset=".5" stop-opacity=".212"/><stop offset="1" stop-opacity="0"/></linearGradient><linearGradient id="paint6_linear" x1="61.985" y1="35.312" x2="61.985" y2="33.742" gradientUnits="userSpaceOnUse"><stop/><stop offset=".571" stop-opacity=".228"/><stop offset="1" stop-opacity="0"/></linearGradient><linearGradient id="paint7_linear" x1="39.833" y1="28.894" x2="41.026" y2="27.189" gradientUnits="userSpaceOnUse"><stop/><stop offset="1" stop-opacity="0"/></linearGradient><linearGradient id="paint8_linear" x1="44.166" y1="22.552" x2="45.292" y2="22.064" gradientUnits="userSpaceOnUse"><stop/><stop offset="1" stop-opacity="0"/></linearGradient><linearGradient id="paint9_linear" x1="42.414" y1="21.261" x2="43.2" y2="21.261" gradientUnits="userSpaceOnUse"><stop stop-color="#fff"/><stop offset="1" stop-color="#fff" stop-opacity="0"/></linearGradient><linearGradient id="paint10_linear" x1="59.122" y1="21.723" x2="58.841" y2="21.693" gradientUnits="userSpaceOnUse"><stop stop-color="#fff"/><stop offset="1" stop-color="#fff" stop-opacity="0"/></linearGradient><linearGradient id="paint11_linear" x1="50.564" y1="21.625" x2="49.675" y2="21.508" gradientUnits="userSpaceOnUse"><stop/><stop offset="1" stop-opacity="0"/></linearGradient><linearGradient id="paint12_linear" x1="50.833" y1="21.261" x2="50.442" y2="21.261" gradientUnits="userSpaceOnUse"><stop stop-color="#fff"/><stop offset="1" stop-color="#fff" stop-opacity="0"/></linearGradient><linearGradient id="paint13_linear" x1="45.9" y1="8.348" x2="47.373" y2="21.076" gradientUnits="userSpaceOnUse"><stop stop-color="#fff"/><stop offset="1" stop-color="#fff" stop-opacity="0"/></linearGradient><linearGradient id="paint14_linear" x1="32.539" y1="37.621" x2="38.663" y2="32.654" gradientUnits="userSpaceOnUse"><stop/><stop offset=".506" stop-opacity=".192"/><stop offset=".691" stop-opacity=".067"/><stop offset="1" stop-opacity="0"/></linearGradient><linearGradient id="paint15_linear" x1="69.851" y1="37.622" x2="63.727" y2="32.654" gradientUnits="userSpaceOnUse"><stop/><stop offset=".506" stop-opacity=".192"/><stop offset=".691" stop-opacity=".067"/><stop offset="1" stop-opacity="0"/></linearGradient><linearGradient id="paint16_linear" x1="62.15" y1="28.286" x2="61.233" y2="26.999" gradientUnits="userSpaceOnUse"><stop/><stop offset="1" stop-opacity="0"/></linearGradient><linearGradient id="paint17_linear" x1="35.334" y1="19.747" x2="35.766" y2="19.986" gradientUnits="userSpaceOnUse"><stop stop-color="#fff"/><stop offset="1" stop-color="#fff" stop-opacity="0"/></linearGradient><linearGradient id="paint18_linear" x1="68.56" y1="26.675" x2="68.236" y2="26.939" gradientUnits="userSpaceOnUse"><stop stop-color="#fff"/><stop offset="1" stop-color="#fff" stop-opacity="0"/></linearGradient><linearGradient id="paint19_linear" x1="52.624" y1="32.972" x2="73.406" y2="26.233" gradientUnits="userSpaceOnUse"><stop stop-color="#fff" stop-opacity=".75"/><stop offset="1" stop-color="#fff" stop-opacity="0"/></linearGradient><linearGradient id="paint20_linear" x1="35.947" y1="30.401" x2="28.561" y2="30.37" gradientUnits="userSpaceOnUse"><stop stop-color="#fff" stop-opacity=".75"/><stop offset="1" stop-color="#fff" stop-opacity="0"/></linearGradient><linearGradient id="paint21_linear" x1="42.268" y1="13.785" x2="41.566" y2="22.925" gradientUnits="userSpaceOnUse"><stop stop-color="#fff"/><stop offset="1" stop-color="#fff" stop-opacity="0"/></linearGradient><linearGradient id="paint22_linear" x1="56.903" y1="14.382" x2="42.014" y2="24.371" gradientUnits="userSpaceOnUse"><stop stop-color="#fff"/><stop offset="1" stop-color="#fff" stop-opacity="0"/></linearGradient><linearGradient id="paint23_linear" x1="60.102" y1="13.785" x2="60.804" y2="22.925" gradientUnits="userSpaceOnUse"><stop stop-color="#fff"/><stop offset="1" stop-color="#fff" stop-opacity="0"/></linearGradient><linearGradient id="paint24_linear" x1="45.49" y1="14.382" x2="60.38" y2="24.371" gradientUnits="userSpaceOnUse"><stop stop-color="#fff"/><stop offset="1" stop-color="#fff" stop-opacity="0"/></linearGradient><linearGradient id="paint25_linear" x1="33.841" y1="26.675" x2="34.166" y2="26.939" gradientUnits="userSpaceOnUse"><stop stop-color="#fff"/><stop offset="1" stop-color="#fff" stop-opacity="0"/></linearGradient><linearGradient id="paint26_linear" x1="49.772" y1="33.048" x2="29.021" y2="26.215" gradientUnits="userSpaceOnUse"><stop stop-color="#fff" stop-opacity=".75"/><stop offset="1" stop-color="#fff" stop-opacity="0"/></linearGradient><linearGradient id="paint27_linear" x1="67.033" y1="19.747" x2="66.6" y2="19.986" gradientUnits="userSpaceOnUse"><stop stop-color="#fff"/><stop offset="1" stop-color="#fff" stop-opacity="0"/></linearGradient><linearGradient id="paint28_linear" x1="54.308" y1="32.227" x2="57.451" y2="28.011" gradientUnits="userSpaceOnUse"><stop stop-color="#fff"/><stop offset="1" stop-color="#fff" stop-opacity="0"/></linearGradient><linearGradient id="paint29_linear" x1="48.222" y1="32.279" x2="44.969" y2="27.972" gradientUnits="userSpaceOnUse"><stop stop-color="#fff"/><stop offset="1" stop-color="#fff" stop-opacity="0"/></linearGradient><linearGradient id="paint30_linear" x1="56.464" y1="8.349" x2="54.99" y2="21.077" gradientUnits="userSpaceOnUse"><stop stop-color="#fff"/><stop offset="1" stop-color="#fff" stop-opacity="0"/></linearGradient></defs></svg>