<svg width="160" height="48" fill="none" xmlns="http://www.w3.org/2000/svg"><path fill-rule="evenodd" clip-rule="evenodd" d="M25.476 16.658l2.005-3.484c.594-1.038.223-2.298-.817-2.89-1.04-.594-2.302-.223-2.896.814l-2.005 3.484c-4.308-1.334-9.135.371-11.437 4.448-1.485 2.595-1.708 5.56-.743 8.154l3.714-6.449c.817-1.482 2.228-2.52 3.861-2.965 1.634-.445 3.417-.222 4.828.667 3.044 1.78 4.084 5.708 2.376 8.747-1.782 3.04-5.718 4.077-8.763 2.372l2.154-3.706c1.04.593 2.302.222 2.896-.815.594-1.038.223-2.298-.817-2.892-1.04-.593-2.302-.222-2.896.816l-6.758 11.638c-.595 1.038-.223 2.298.816 2.891 1.04.593 2.303.223 2.897-.815l2.005-3.484c4.307 1.334 9.134-.37 11.437-4.448 2.376-4.003 1.485-9.044-1.857-12.083zm22.289 1.556h-5.092v14.538h3.009v-4.77h2.083c3.009 0 5.44-1.477 5.44-4.884 0-3.408-2.431-4.884-5.44-4.884zm2.315 4.77c0 1.59-.926 2.271-2.43 2.271l-2.084-.113v-4.43h2.083c1.389 0 2.43.682 2.43 2.272zm17.244-4.77h-9.837v14.424h10.068v-2.612h-6.944v-3.407h5.903v-2.5H60.61v-3.293h6.713v-2.612zm8.333 0h-3.01v14.424h9.607v-2.612h-6.597V18.214zm17.707-.114c-4.282 0-7.638 3.18-7.638 7.383 0 4.202 3.356 7.382 7.638 7.382s7.639-3.18 7.639-7.382c0-4.203-3.357-7.383-7.639-7.383zm-.116 2.612c2.662 0 4.514 2.045 4.514 4.77 0 2.613-1.736 4.657-4.514 4.77-2.662 0-4.513-2.043-4.513-4.77 0-2.725 1.852-4.77 4.513-4.77zm10.995.114h4.167v11.812h3.009V20.826h4.166v-2.612h-11.342v2.612zm22.221-2.726c-4.283 0-7.638 3.18-7.638 7.383 0 4.202 3.355 7.382 7.638 7.382 4.282 0 7.638-3.18 7.638-7.382 0-4.203-3.356-7.383-7.638-7.383zm-.116 2.612c2.662 0 4.514 2.045 4.514 4.77 0 2.613-1.852 4.77-4.514 4.77s-4.514-2.043-4.514-4.77c0-2.725 1.852-4.77 4.514-4.77zm15.161 3.294s1.043 1.25 1.737 1.931l7.407 6.815H151V18.214h-2.778v6.02c0 1.021.232 2.612.232 2.612s-1.042-1.25-1.737-1.931L139.31 18.1h-.347v14.538h2.778v-6.02c0-1.022-.232-2.612-.232-2.612z" fill="#131313"/></svg>