<svg width="160" height="48" fill="none" xmlns="http://www.w3.org/2000/svg"><path d="M68.308 20.316h3.48V31.17h-3.48V20.316zm4.214 0h3.35v1.486h.065c.809-1.166 1.854-1.797 3.373-1.797 2.392 0 3.804 1.7 3.804 4.118v7.059h-3.48v-6.364c0-1.144-.582-1.925-1.714-1.925-1.153 0-1.918.952-1.918 2.289v6h-3.48V20.316zm-2.468-.824c1.154 0 2.09-.929 2.09-2.075a2.083 2.083 0 00-2.09-2.075c-1.155 0-2.09.93-2.09 2.075 0 1.146.935 2.075 2.09 2.075zm37.543.663c-.097-.01-.216-.01-.345-.01-1.325 0-2.22.577-2.996 1.86h-.064v-1.69h-3.33v10.856h3.481v-4.877c0-2.256 1.26-3.305 3.254-3.123v-3.016zm17.09 4.171c-1.39-.256-2.629-.364-2.629-1.123 0-.674.658-.994 1.52-.994.959 0 1.627.299 1.756 1.272h3.2c-.172-2.139-1.831-3.476-4.935-3.476-2.586 0-4.72 1.188-4.72 3.476 0 2.546 2.026 3.048 3.933 3.37 1.455.256 2.781.363 2.781 1.336 0 .695-.658 1.08-1.714 1.08-1.045 0-1.745-.438-1.961-1.337h-3.319c.248 2.236 2.22 3.583 5.302 3.583 2.866 0 4.978-1.23 4.978-3.604-.01-2.78-2.273-3.262-4.192-3.583zm-11.498 4.684c-1.433 0-2.241-.908-2.456-2.374h7.855c.022-2.203-.614-4.096-1.918-5.283-.937-.845-2.177-1.358-3.739-1.358-3.33 0-5.614 2.48-5.614 5.722 0 3.283 2.219 5.764 5.829 5.764 1.39 0 2.5-.363 3.416-.994.959-.653 1.606-1.594 1.832-2.567H115c-.291.684-.884 1.09-1.811 1.09zm-.193-6.556c1.131 0 1.939.824 2.068 2.118h-4.31c.237-1.283.927-2.117 2.242-2.117zM135 28.615c-.162.01-.377.01-.582.01-.743 0-1.218-.213-1.218-1.058v-5.091h1.8v-2.16h-1.8v-3.434h-3.394v3.433h-1.067v2.161h1.067v5.829c0 2.331 1.455 2.994 3.481 2.994.776 0 1.357-.053 1.713-.128v-2.556zm-45.668 0c-.14 0-.302.01-.453.01-.743 0-1.217-.213-1.217-1.058v-5.091h1.67v-2.16h-1.67v-3.434h-3.395v3.433h-1.131v2.161h1.131v5.829c0 2.331 1.455 2.994 3.48 2.994.69 0 1.23-.042 1.585-.107v-2.577z" fill="#E60019"/><path d="M89.16 25.727c0-3.24 2.284-5.722 5.614-5.722 1.562 0 2.801.514 3.739 1.359 1.304 1.187 1.94 3.07 1.918 5.283h-7.856c.216 1.465 1.024 2.374 2.457 2.374.916 0 1.52-.406 1.81-1.08h3.395c-.237.973-.873 1.904-1.832 2.567-.916.631-2.026.995-3.416.995-3.61-.011-5.83-2.492-5.83-5.776zm7.758-1.144c-.13-1.294-.938-2.118-2.069-2.118-1.325 0-2.004.824-2.241 2.118h4.31zm-40.851-8.567h6.045c1.854 0 3.222.513 4.17 1.401.981.91 1.541 2.203 1.541 3.733 0 2.909-2.025 4.962-5.172 4.962h-3.06v5.07h-3.524V16.016zm6.196 7.123c1.369 0 2.134-.802 2.134-2.01 0-1.21-.787-1.947-2.134-1.947h-2.672v3.968h2.672v-.011z" fill="#E60019"/><path d="M38.093 36.99c7.23 0 13.092-5.819 13.092-12.995C51.185 16.818 45.324 11 38.093 11 30.862 11 25 16.818 25 23.995c0 7.176 5.862 12.994 13.093 12.994z" fill="#fff"/><path d="M38.093 11C30.85 11 25 16.818 25 23.995c0 5.508 3.448 10.214 8.319 12.107-.119-1.027-.216-2.61.043-3.733.237-1.016 1.53-6.46 1.53-6.46s-.388-.78-.388-1.925c0-1.808 1.056-3.155 2.371-3.155 1.12 0 1.66.834 1.66 1.829 0 1.112-.712 2.78-1.089 4.331-.312 1.294.657 2.353 1.94 2.353 2.327 0 4.116-2.438 4.116-5.946 0-3.113-2.252-5.284-5.474-5.284-3.728 0-5.916 2.77-5.916 5.637 0 1.112.431 2.31.97 2.962a.385.385 0 01.086.375c-.097.406-.323 1.294-.366 1.476-.054.235-.194.288-.442.17-1.616-.77-2.63-3.144-2.63-5.047 0-4.097 2.996-7.861 8.654-7.861 4.536 0 8.07 3.208 8.07 7.508 0 4.48-2.844 8.085-6.788 8.085-1.325 0-2.575-.684-2.996-1.497l-.819 3.09c-.29 1.134-1.088 2.546-1.627 3.413 1.229.374 2.522.577 3.88.577 7.23 0 13.092-5.818 13.092-12.995C51.186 16.818 45.323 11 38.093 11z" fill="#E60019"/></svg>