<svg width="160" height="48" viewBox="0 0 160 48" fill="none" xmlns="http://www.w3.org/2000/svg"><g clip-path="url(#clip0_1100_2)" fill="#1C0732"><path d="M39.82 19.279H25.272a.503.503 0 00-.503.502v1.694c0 .278.225.503.503.503H39.82a.503.503 0 00.502-.503v-1.694a.503.503 0 00-.502-.502zM30.197 26.022H15.648a.503.503 0 00-.502.503v1.694c0 .277.225.502.502.502h14.549a.502.502 0 00.502-.502v-1.694a.503.503 0 00-.503-.503z"/><path fill-rule="evenodd" clip-rule="evenodd" d="M17.012 21.125a.504.504 0 00.611-.35 10.615 10.615 0 0112.403-7.136.499.499 0 00.584-.362l.439-1.64a.504.504 0 00-.382-.62 13.311 13.311 0 00-15.637 9.046.5.5 0 00.351.625l1.63.438zM38.46 26.867a.506.506 0 00-.619.352 10.616 10.616 0 01-12.402 7.144.498.498 0 00-.584.362l-.43 1.63a.503.503 0 00.381.622 13.318 13.318 0 0015.637-9.046.498.498 0 00-.35-.624l-1.633-.44z"/><path d="M35.424 16.317a1.48 1.48 0 100-2.96 1.48 1.48 0 000 2.96zM20.048 34.64a1.48 1.48 0 100-2.958 1.48 1.48 0 000 2.959z"/><path fill-rule="evenodd" clip-rule="evenodd" d="M76.554 21.317a5.66 5.66 0 014.264-1.848c1.557 0 2.77.481 3.535 1.405v-.766a.428.428 0 01.404-.407h2.053a.43.43 0 01.404.407v11.395a6.942 6.942 0 01-1.406 4.47C84.701 37.317 83.022 38 80.815 38c-3.068 0-5.49-1.941-5.888-4.714a.43.43 0 01.31-.455l2.004-.471h.032a.4.4 0 01.456.339 3.033 3.033 0 003.09 2.672c2.396 0 3.513-1.23 3.513-3.8v-.998a4.508 4.508 0 01-3.514 1.504c-3.41 0-5.884-2.648-5.884-6.292a6.635 6.635 0 011.62-4.468zm39.795-2.005h.107c3.667.05 5.939 2.602 5.939 6.688a6.38 6.38 0 01-.035.648.4.4 0 01-.394.351h-8.717a3.357 3.357 0 003.4 3.253 3.057 3.057 0 003.119-2.177.405.405 0 01.501-.241l1.734.615a.373.373 0 01.227.205.384.384 0 01.021.304 5.741 5.741 0 01-5.609 3.9 6.196 6.196 0 01-4.422-1.795 6.91 6.91 0 01-1.899-5.018c0-4.217 3.064-6.742 6.024-6.742l.004.01zm-49.316 0c3.731 0 6.05 2.564 6.05 6.69 0 .216-.011.432-.034.648a.394.394 0 01-.394.351h-8.717a3.353 3.353 0 003.421 3.26 3.052 3.052 0 003.12-2.178.397.397 0 01.5-.24l1.741.613a.372.372 0 01.257.357c0 .053-.01.104-.03.152a5.739 5.739 0 01-5.605 3.901 6.2 6.2 0 01-4.431-1.796 6.94 6.94 0 01-1.9-5.018c0-4.217 3.065-6.741 6.027-6.741l-.005.001zm-13.203 0c1.675 0 3.03.406 4.033 1.21.677.54 1.18 1.268 1.444 2.094a.273.273 0 01-.206.328l-2.078.687a.403.403 0 01-.287 0 .303.303 0 01-.163-.19c-.176-.673-.78-1.802-2.746-1.802-1.372 0-2.195.787-2.195 1.55 0 .505.262 1.157 1.499 1.393l2.284.428c2.553.515 4.015 1.912 4.015 3.857v-.033c0 1.932-1.859 3.997-5.313 3.997-4.006 0-5.58-2.267-5.87-3.604a.288.288 0 01.212-.318l2.144-.668a.319.319 0 01.116 0 .36.36 0 01.276.122.295.295 0 01.057.114c.271 1.286 1.432 2.052 3.103 2.052 1.555 0 2.263-.813 2.263-1.551s-.63-1.281-1.715-1.5l-2.403-.466c-2.242-.424-3.639-1.817-3.639-3.63 0-2.207 2.37-4.07 5.17-4.07zm88.3-3.575a.429.429 0 01.402.428v3.515h2.254a.43.43 0 01.399.428v1.873a.402.402 0 01-.399.406h-2.254v6.253c0 1.037.411 1.466 1.469 1.466a5.47 5.47 0 00.72-.06.404.404 0 01.327.09c.043.04.077.087.1.14a.41.41 0 01.037.169v1.757a.402.402 0 01-.288.39 5.552 5.552 0 01-1.581.205c-2.26 0-3.66-1.453-3.66-3.796v-6.588h-1.95a.431.431 0 01-.403-.407v-1.877a.43.43 0 01.403-.428h.506c.613 0 1.646-.215 1.646-1.677v-1.859a.425.425 0 01.402-.428h1.87zm-42.31 5.67a4.64 4.64 0 014.086-2.095c2.228 0 4.478 1.57 4.478 4.997v7.935a.426.426 0 01-.404.408h-2.054a.434.434 0 01-.402-.408v-7.68c0-.972-.304-2.61-2.362-2.61-1.504 0-2.572 1.183-2.572 2.898v7.392a.43.43 0 01-.402.408h-2.08a.43.43 0 01-.405-.408v-7.68c.004-.972-.298-2.616-2.358-2.616-1.563 0-2.618 1.174-2.618 2.922v7.374a.43.43 0 01-.402.408h-2.052a.428.428 0 01-.399-.408V20.082a.43.43 0 01.399-.408h1.975a.43.43 0 01.402.408v.732a4.62 4.62 0 013.472-1.502 4.103 4.103 0 013.698 2.095zm31.295-2.095a4.336 4.336 0 013.481 1.513 5.663 5.663 0 011.147 3.663v7.756a.43.43 0 01-.397.408h-2.079a.431.431 0 01-.404-.408v-7.34c0-1.921-.903-2.898-2.618-2.898a2.377 2.377 0 00-1.948.908c-.465.669-.7 1.47-.67 2.284v7.046a.429.429 0 01-.402.408h-2.075a.43.43 0 01-.403-.408V20.073a.429.429 0 01.403-.41h2.027a.425.425 0 01.399.407v.857a4.467 4.467 0 013.539-1.615zm-49.94 2.72c-2.024 0-3.309 1.44-3.309 3.753 0 2.314 1.269 3.751 3.309 3.751 1.945 0 3.256-1.509 3.256-3.75 0-2.243-1.311-3.754-3.256-3.754zm-14.121-.116a2.999 2.999 0 00-3.033 2.667h6.097c-.146-1.646-1.316-2.667-3.064-2.667zm49.328 0a3.001 3.001 0 00-3.029 2.667h6.099c-.151-1.646-1.314-2.667-3.072-2.667h.002z"/><path d="M51.685 11.088v4.086h-1.158v-4.086h-1.6v-.991h4.376v.99h-1.618zM60.53 15.192h-1.204l-1.103-3.742-1.123 3.742h-1.179l-1.493-5.095h1.23l.947 3.67 1.068-3.67h1.23l1.054 3.67.917-3.67h1.132l-1.476 5.095zM63.6 15.174v-5.077h1.14v5.077H63.6zM66.792 15.174v-5.077h1.158v4.078h1.982v1h-3.14zM71.657 15.174v-5.077h1.15v5.077h-1.15zM77.106 15.271c-1.406 0-2.53-1.008-2.53-2.627 0-1.618 1.14-2.635 2.539-2.635 1.398 0 2.528 1.008 2.528 2.635 0 1.627-1.132 2.627-2.537 2.627zm0-4.333c-.879 0-1.39.724-1.39 1.697 0 .974.527 1.707 1.39 1.707.862 0 1.37-.742 1.37-1.698s-.513-1.706-1.361-1.706h-.01z"/></g><defs><clipPath id="clip0_1100_2"><path fill="#fff" transform="translate(15 10)" d="M0 0h130.185v28H0z"/></clipPath></defs></svg>