<svg width="160" height="48" fill="none" xmlns="http://www.w3.org/2000/svg"><path d="M18.168 20.661l4.405 8.055 5.101.004 4.33-8.06 2.171.001v-1.46h-6.529v1.46h1.886l-3.153 5.867-3.196-5.867h2.292V19.2h-9.473L16 20.66h2.168zm56.129-.003l-.001-1.457h8.735v1.457h-2.176v6.575h2.017c1.87 0 3.095-1.242 3.095-2.928h1.44v4.403l-13.111.001v-1.474h2.202l-.003-6.577h-2.198zm-21.23 6.83c-1.601-.03-2.305-1.811-2.275-3.581.032-1.834.904-3.433 2.404-3.406 1.501.026 2.293 1.655 2.26 3.488-.03 1.729-.739 3.529-2.388 3.499zm.05-8.488c-4.387 0-6.716 2.202-6.716 4.965 0 2.802 2.243 5.035 6.74 5.035s6.716-2.233 6.716-5.035c0-2.763-2.354-4.965-6.74-4.965zm49.191 1.661l4.405 8.055 5.101.004 4.33-8.06 2.171.001v-1.46h-6.529v1.46h1.886l-3.153 5.867-3.196-5.867h2.292l-.001-1.46h-9.472l-.002 1.46h2.168zm34.902 6.827c-1.602-.03-2.306-1.811-2.275-3.581.032-1.834.904-3.433 2.404-3.406 1.501.026 2.293 1.655 2.26 3.488-.03 1.729-.739 3.529-2.389 3.499zm.049-8.488c-4.386 0-6.716 2.202-6.716 4.965 0 2.802 2.243 5.035 6.741 5.035 4.497 0 6.716-2.233 6.716-5.035 0-2.763-2.354-4.965-6.741-4.965z" fill="#161618"/></svg>